<?xml version="1.0" standalone="no"?>
<!DOCTYPE svg PUBLIC "-//W3C//DTD SVG 20010904//EN"
 "http://www.w3.org/TR/2001/REC-SVG-20010904/DTD/svg10.dtd">
<svg version="1.0" xmlns="http://www.w3.org/2000/svg"
 width="700.000000pt" height="465.000000pt" viewBox="0 0 700.000000 465.000000"
 preserveAspectRatio="xMidYMid meet">

<g transform="translate(0.000000,465.000000) scale(0.100000,-0.100000)"
fill="#000000" stroke="none">
<path d="M0 2685 l0 -1966 245 3 245 3 0 -90 c0 -49 -6 -113 -14 -142 -15 -57
-61 -163 -71 -163 -3 0 -3 4 0 10 4 7 -55 10 -169 10 -111 0 -176 4 -176 10 0
6 66 10 179 10 l179 0 23 68 c12 37 24 73 27 80 3 9 -47 12 -232 12 l-236 0 0
-170 0 -169 103 -4 102 -3 -102 -2 -103 -2 0 -90 0 -90 3500 0 3500 0 0 90 0
90 -387 3 -388 2 388 3 387 2 0 80 0 80 -404 0 c-259 0 -407 4 -411 10 -4 7
133 10 404 10 l411 0 0 80 0 80 -415 0 -415 0 0 -57 c0 -36 -3 -54 -10 -47
-11 11 -60 208 -60 241 0 12 -15 36 -32 52 -32 30 -33 34 -36 118 -2 49 1 99
7 113 9 22 10 20 10 -21 1 -69 28 -146 56 -165 14 -9 25 -23 25 -30 0 -12 71
-14 435 -14 l435 0 0 1965 0 1965 -3500 0 -3500 0 0 -1965z m770 1665 c0 -5
-5 -10 -11 -10 -5 0 -7 5 -4 10 3 6 8 10 11 10 2 0 4 -4 4 -10z m2890 -95
c533 -86 1014 -391 1309 -831 167 -249 266 -494 318 -794 20 -111 25 -522 7
-553 -9 -16 -15 -14 -64 23 -29 22 -57 40 -62 40 -5 0 -6 42 -2 93 8 114 -9
324 -36 458 -127 621 -586 1143 -1184 1345 -363 123 -738 132 -1101 26 -643
-188 -1132 -721 -1265 -1379 -42 -211 -46 -482 -10 -663 9 -43 7 -48 -38 -114
-26 -39 -52 -71 -58 -73 -14 -5 -49 163 -64 299 -54 514 114 1047 459 1460
314 374 802 630 1295 678 121 12 378 4 496 -15z m2095 -1225 c-7 -40 -2 -47
24 -31 14 9 49 -4 63 -24 13 -18 8 -90 -8 -113 -19 -27 -74 -30 -97 -4 -14 16
-30 63 -44 132 -5 29 29 80 54 80 12 0 13 -8 8 -40z m-4441 -269 c33 -36 12
-46 -25 -13 -30 28 -32 31 -13 32 11 0 29 -9 38 -19z m2141 -21 c71 -66 18
-162 -89 -162 -79 0 -132 83 -89 140 11 15 31 33 44 40 35 18 105 9 134 -18z
m-2173 -5 c16 -36 -1 -53 -37 -37 -23 11 -33 40 -18 55 15 15 44 5 55 -18z
m3074 -11 c19 -9 33 -18 32 -20 -4 -3 -121 36 -128 43 -9 11 61 -7 96 -23z
m-1956 -2 c0 -9 -90 -55 -97 -49 -2 3 10 16 27 31 30 25 70 35 70 18z m3708
-53 c38 -15 25 -50 -29 -78 -50 -27 -86 -24 -116 8 -10 10 -28 24 -40 30 -21
11 -31 40 -18 53 8 7 177 -4 203 -13z m-4775 -16 c-7 -3 -13 -13 -13 -24 0
-12 -5 -16 -15 -13 -8 4 -15 12 -15 20 0 8 7 14 15 14 8 0 15 8 15 17 0 14 2
15 13 4 10 -11 10 -14 0 -18z m-129 -94 c-3 -5 -10 -7 -15 -3 -5 3 -7 10 -3
15 3 5 10 7 15 3 5 -3 7 -10 3 -15z m2226 -94 c0 -24 -3 -25 -55 -25 -52 0
-55 1 -55 25 0 24 3 25 55 25 52 0 55 -1 55 -25z m-2324 -9 c10 -8 16 -17 12
-21 -8 -8 -48 13 -48 25 0 14 13 12 36 -4z m124 -5 c0 -15 -19 -23 -38 -16
-14 5 -14 7 -2 15 19 12 40 13 40 1z m5290 -191 c0 -5 6 -10 14 -10 8 0 18 -4
21 -10 8 -14 -13 -50 -29 -50 -15 0 -35 48 -29 68 5 14 23 16 23 2z m48 -115
c25 -54 9 -82 -36 -62 -27 12 -39 51 -22 72 19 23 45 18 58 -10z m77 -85 c0
-22 -39 -19 -43 3 -3 15 1 18 20 15 12 -2 23 -10 23 -18z m-5324 -57 c-12 -20
-14 -14 -5 12 4 9 9 14 11 11 3 -2 0 -13 -6 -23z m369 -10 c0 -17 -19 -37 -27
-29 -4 5 -2 11 5 13 6 3 10 9 6 14 -3 5 0 9 5 9 6 0 11 -3 11 -7z m22 -95 c-8
-8 -9 -4 -5 13 4 13 8 18 11 10 2 -7 -1 -18 -6 -23z m3454 1 l32 -31 -28 -40
c-16 -22 -34 -56 -41 -76 -6 -20 -26 -59 -45 -87 -18 -27 -36 -64 -40 -81 -5
-27 -2 -33 27 -52 22 -14 36 -17 40 -10 4 6 12 9 19 6 14 -4 -59 -151 -125
-253 -82 -125 -219 -295 -238 -295 -6 0 -30 21 -54 46 l-44 45 49 57 c109 128
191 250 260 387 47 95 115 277 132 358 7 31 16 57 19 57 3 0 20 -14 37 -31z
m-4496 -79 c0 -5 -2 -10 -4 -10 -3 0 -8 5 -11 10 -3 6 -1 10 4 10 6 0 11 -4
11 -10z m1019 -222 c1 -9 -21 -40 -47 -69 l-48 -52 -29 67 c-28 65 -28 68 -12
102 20 42 21 47 5 38 -22 -12 -4 4 37 34 l40 29 27 -66 c15 -36 27 -74 27 -83z
m4141 50 c52 -89 57 -100 33 -70 -22 27 -87 142 -80 142 3 0 24 -33 47 -72z
m-3980 26 c0 -8 -4 -12 -10 -9 -5 3 -10 10 -10 16 0 5 5 9 10 9 6 0 10 -7 10
-16z m-810 -103 c-11 -23 -23 -41 -26 -41 -8 0 6 41 23 68 24 38 26 18 3 -27z
m320 -41 c0 -5 -5 -10 -11 -10 -5 0 -7 5 -4 10 3 6 8 10 11 10 2 0 4 -4 4 -10z
m4601 -36 c17 -8 29 -17 26 -20 -5 -5 -77 24 -77 31 0 9 21 5 51 -11z m-4201
-49 c-7 -9 -15 -13 -17 -11 -7 7 7 26 19 26 6 0 6 -6 -2 -15z m-765 -6 c12
-19 -5 -23 -22 -6 -16 16 -16 17 -1 17 9 0 20 -5 23 -11z m805 -45 c26 -40 23
-51 -34 -118 l-33 -39 -26 38 -25 37 41 59 c23 32 45 58 49 58 3 1 16 -15 28
-35z m-132 -67 c-24 -36 -46 -66 -49 -66 -15 -2 5 51 25 67 12 9 30 30 40 45
11 15 21 26 23 23 2 -2 -15 -33 -39 -69z m-1054 -12 c5 -22 4 -26 -4 -15 -5 8
-10 24 -10 34 0 26 6 18 14 -19z m607 -1 c7 -8 9 -17 6 -20 -8 -8 -60 18 -64
32 -5 16 43 5 58 -12z m-331 -3 c0 -5 -7 -11 -15 -15 -15 -5 -20 5 -8 17 9 10
23 9 23 -2z m710 -45 c0 -3 -4 -8 -10 -11 -5 -3 -10 -1 -10 4 0 6 5 11 10 11
6 0 10 -2 10 -4z m-265 -49 c74 -28 87 -53 24 -42 -50 9 -89 31 -89 51 0 17
-5 18 65 -9z m-79 -17 c19 -16 55 -35 80 -41 33 -9 44 -16 42 -28 -6 -28 -51
-24 -92 9 -21 16 -44 30 -50 30 -22 0 -55 30 -50 45 9 23 33 18 70 -15z m684
-7 c39 -58 227 -242 312 -306 42 -31 114 -81 160 -110 l83 -52 849 -3 849 -2
51 26 c28 15 90 53 137 85 47 33 88 59 91 59 3 0 11 -14 18 -30 7 -17 25 -41
41 -54 l28 -24 -41 -28 -41 -29 104 -6 104 -5 -113 -2 c-111 -2 -114 -3 -169
-38 -30 -19 -90 -54 -132 -76 -42 -22 -79 -44 -83 -47 -4 -4 142 -8 325 -10
183 -1 334 -5 336 -7 2 -2 -158 -4 -356 -4 l-359 0 -105 -39 c-129 -48 -281
-86 -419 -105 -97 -13 -45 -14 682 -17 432 -2 784 -1 782 3 -3 4 -36 28 -73
52 -38 24 -72 50 -76 57 -6 8 -4 10 6 4 32 -19 189 -127 189 -131 0 -2 -891
-4 -1980 -4 -1320 0 -1980 3 -1980 10 0 7 345 10 1023 11 578 1 996 5 962 10
-193 26 -332 59 -475 114 l-92 35 -641 0 -642 -1 -40 -55 c-64 -87 -147 -141
-98 -63 25 39 131 147 158 161 16 9 18 8 8 -3 -7 -7 -13 -17 -13 -22 0 -5 266
-7 610 -6 336 1 610 6 610 10 0 4 -10 9 -22 13 -13 3 -76 37 -141 76 l-117 70
-398 2 -397 3 388 5 387 5 -72 55 c-87 65 -313 290 -323 320 -5 15 4 36 31 76
20 29 40 54 43 54 3 0 17 -17 31 -37z m-1292 -73 c32 -48 27 -70 -6 -24 -43
60 -47 67 -31 62 8 -2 24 -19 37 -38z m1087 -90 c-16 -16 -31 -28 -34 -25 -2
3 8 19 24 35 16 16 31 28 34 25 2 -3 -8 -19 -24 -35z m-517 -10 c15 -27 21
-30 50 -25 58 11 87 -36 35 -56 -24 -9 -30 -7 -48 15 -14 18 -27 24 -41 20
-16 -4 -23 0 -27 18 -17 61 2 79 31 28z m-488 -66 c18 -53 4 -52 -19 1 -25 56
-26 61 -7 45 8 -6 20 -27 26 -46z m475 -44 c10 -11 24 -20 32 -20 22 0 14 -44
-12 -63 -28 -20 -125 -36 -125 -20 0 28 26 81 49 100 32 28 34 28 56 3z m-435
-99 c0 -21 -16 -2 -24 29 -7 24 -6 24 8 6 9 -11 16 -27 16 -35z m750 39 c0 -5
-7 -10 -16 -10 -8 0 -12 5 -9 10 3 6 10 10 16 10 5 0 9 -4 9 -10z m-300 -255
c0 -13 -48 -65 -60 -65 -16 0 -12 16 17 59 19 29 29 37 35 29 4 -7 8 -18 8
-23z m-244 -9 c12 -10 16 -18 9 -24 -14 -14 -55 4 -55 23 0 19 20 19 46 1z
m-916 -168 c0 -26 -1 -25 -29 32 l-22 45 26 -28 c14 -15 25 -38 25 -49z m247
-234 c-3 -3 -12 -4 -19 -1 -8 3 -5 6 6 6 11 1 17 -2 13 -5z m3921 -1 c-597 -2
-1578 -2 -2180 0 -601 1 -112 2 1087 2 1199 0 1691 -1 1093 -2z"/>
<path d="M2556 701 c18 -18 205 -90 310 -120 l107 -31 382 0 382 0 104 29
c106 30 295 103 313 121 7 7 -257 10 -799 10 -489 0 -805 -4 -799 -9z"/>
<path d="M3205 520 c28 -5 95 -8 150 -8 55 0 123 3 150 8 33 5 -18 7 -150 7
-132 0 -183 -2 -150 -7z"/>
<path d="M0 625 l0 -85 234 0 c268 0 246 -9 246 101 l0 69 -240 0 -240 0 0
-85z"/>
<path d="M6141 698 c0 -7 6 -44 12 -83 l12 -70 418 -3 417 -2 0 85 0 85 -430
0 c-338 0 -430 -3 -429 -12z"/>
</g>
</svg>
